<?xml version="1.0" encoding="UTF-8"?>
<svg
  xmlns="http://www.w3.org/2000/svg"
  viewBox="0 0 529.74 441.76"
  role="img"
  aria-labelledby="likas-mark-title">
  <title id="likas-mark-title">LIKAS mark</title>

  <g fill="#3bb372">
    <path
      d="M393.45,33.09c14.29-2.03,35.75-.71,51.62-1.07,21.85-.21,36.86-.47,46.51,17.89,16.55,37.56-79.81,110.45-112.52,123.43-18.38,8.05-40.9,17.16-46.91,38.11-5.38,16.98,2.8,36.92,16.41,46.98,8.53,6.34,18.29,10.44,27.33,16.09,10.64,6.38,21.33,14.29,30.79,21.88,23.56,17.43,40.53,42.43,53.53,68.38,7.31,14.84,18.7,30,20.12,46.55,1.2,13.23-8.71,25.08-21.11,28.56-6.66,1.96-13.12,1.73-22.75,1.77-16.96-.03-35.85.02-53.08,0-11.65-.23-21.59.87-30.47-3.22-17.48-7.43-19.85-25.44-15.62-42.17,8.23-31.05-1.82-63.34-21.97-87.76-10.85-13.05-23.23-26.41-39.08-33.16-26.76-11.07-52.86,22.55-63.6,43.44-11.61,23.01-6.04,50.39-6.83,75.45.85,18.42-2.55,39.76-22.61,44.93-6.68,2.01-14.13,2.37-21.2,2.46-42.18-.18-84.38.57-126.56-.32-26.07-1.14-36.21-17.34-35.31-42.16-1.07-24.61,2.93-47.49,32.02-48.87,33.63.82,61.75-1.77,87.96-23.43,28.15-21.84,56.56-48,77.07-79,4.72-8.07,6.91-16.72,5.73-25.79-4.49-29.54-30.2-58.54-61.59-57.2-26.86,1.78-38.38,26.93-37.57,51.26-.35,14.21,5.46,29.53,1.22,42.68-7.95,23.93-42.07,24.67-58.92,10.42-12.65-9.87-14.88-27.94-15.88-43.39-7.38-92.88,39.62-159.5,124.18-143.63,20.62,3.75,43.96,12.41,49.51,34.84,3.89,14.16,7.27,28.05,15.71,40.74,10.42,15.97,28.21,33.07,48.42,24.74,46.52-19.36,65.36-70.14,88.74-110.24,8.42-15.61,17.32-35.62,36.47-39.13l.22-.04Z"
    />
    <circle cx="264.87" cy="56.95" r="56.95" />
  </g>
</svg>
